<svg xmlns="http://www.w3.org/2000/svg" width="120" height="40" viewBox="0 0 120 40" fill="none">
  <!-- Logo Background -->
  <rect width="40" height="40" rx="8" fill="#3B82F6"/>
  
  <!-- Mail Icon -->
  <path d="M10 14C10 12.8954 10.8954 12 12 12H28C29.1046 12 30 12.8954 30 14V26C30 27.1046 29.1046 28 28 28H12C10.8954 28 10 27.1046 10 26V14Z" fill="white"/>
  <path d="M20 18L26 22L20 26L14 22L20 18Z" fill="#3B82F6"/>
  <path d="M20 20L22 22L20 24L18 22L20 20Z" fill="white"/>
  
  <!-- Text "Maily" -->
  <path d="M48 14H50.5L54 24L57.5 14H60L55 28H53L48 14Z" fill="#1F2937"/>
  <path d="M62 14H64.5V28H62V14Z" fill="#1F2937"/>
  <path d="M67 14H69.5V26H77V28H67V14Z" fill="#1F2937"/>
  <path d="M79 14H81.5V28H79V14Z" fill="#1F2937"/>
  <path d="M84 14H86.5V22.5C86.5 24.5 87.5 26 90 26C92.5 26 93.5 24.5 93.5 22.5V14H96V22.5C96 26 94 28.5 90 28.5C86 28.5 84 26 84 22.5V14Z" fill="#1F2937"/>
  
  <!-- Tagline -->
  <path d="M48 32H49L51 36L53 32H54L51.5 37H50.5L48 32Z" fill="#6B7280" font-size="6"/>
  <path d="M55 32H59V32.8H55.8V34H58.5V34.8H55.8V36.2H59V37H55V32Z" fill="#6B7280" font-size="6"/>
  <path d="M60 32H63.5C64.3 32 65 32.7 65 33.5C65 34.1 64.6 34.6 64 34.8C64.3 34.9 64.5 35.2 64.5 35.5L64.8 36.5C64.9 36.8 65 37 65.2 37H64.2C64.1 37 64 36.9 64 36.7L63.7 35.5C63.6 35.1 63.4 35 63 35H60.8V37H60V32ZM63.3 34.2C63.7 34.2 64 33.9 64 33.5C64 33.1 63.7 32.8 63.3 32.8H60.8V34.2H63.3Z" fill="#6B7280" font-size="6"/>
  <path d="M66 32H67V36.2H70V37H66V32Z" fill="#6B7280" font-size="6"/>
  <path d="M71 32H72V37H71V32Z" fill="#6B7280" font-size="6"/>
  <path d="M73 32H74L77 35.5V32H78V37H77L74 33.5V37H73V32Z" fill="#6B7280" font-size="6"/>
  <path d="M79 32H83V32.8H79.8V34H82.5V34.8H79.8V36.2H83V37H79V32Z" fill="#6B7280" font-size="6"/>
  <path d="M84 32H87.5C88.3 32 89 32.7 89 33.5C89 34.3 88.3 35 87.5 35H84.8V37H84V32ZM87.3 34.2C87.7 34.2 88 33.9 88 33.5C88 33.1 87.7 32.8 87.3 32.8H84.8V34.2H87.3Z" fill="#6B7280" font-size="6"/>
</svg>
