<svg width="600" height="400" viewBox="0 0 600 400" fill="none" xmlns="http://www.w3.org/2000/svg">
  <rect width="600" height="400" rx="8" fill="#F8FAFC"/>
  
  <!-- Dashboard Header -->
  <rect x="0" y="0" width="600" height="60" rx="8" fill="#1E40AF"/>
  <rect x="20" y="20" width="120" height="20" rx="4" fill="white" opacity="0.9"/>
  <circle cx="560" cy="30" r="15" fill="white" opacity="0.7"/>
  
  <!-- Sidebar -->
  <rect x="0" y="60" width="160" height="340" fill="#F1F5F9"/>
  <rect x="20" y="90" width="120" height="10" rx="2" fill="#64748B"/>
  <rect x="20" y="120" width="100" height="10" rx="2" fill="#64748B"/>
  <rect x="20" y="150" width="110" height="10" rx="2" fill="#64748B"/>
  <rect x="20" y="180" width="90" height="10" rx="2" fill="#64748B"/>
  <rect x="20" y="210" width="80" height="10" rx="2" fill="#64748B"/>
  
  <!-- Main Content Area -->
  <rect x="180" y="80" width="400" height="40" rx="4" fill="#E2E8F0"/>
  <rect x="200" y="95" width="200" height="10" rx="2" fill="#334155"/>
  <rect x="500" y="90" width="60" height="20" rx="4" fill="#3B82F6"/>
  
  <!-- Stats Cards -->
  <rect x="180" y="140" width="120" height="80" rx="8" fill="white" stroke="#E2E8F0" stroke-width="1"/>
  <rect x="200" y="160" width="80" height="10" rx="2" fill="#94A3B8"/>
  <rect x="200" y="180" width="60" height="20" rx="2" fill="#3B82F6"/>
  
  <rect x="320" y="140" width="120" height="80" rx="8" fill="white" stroke="#E2E8F0" stroke-width="1"/>
  <rect x="340" y="160" width="80" height="10" rx="2" fill="#94A3B8"/>
  <rect x="340" y="180" width="60" height="20" rx="2" fill="#3B82F6"/>
  
  <rect x="460" y="140" width="120" height="80" rx="8" fill="white" stroke="#E2E8F0" stroke-width="1"/>
  <rect x="480" y="160" width="80" height="10" rx="2" fill="#94A3B8"/>
  <rect x="480" y="180" width="60" height="20" rx="2" fill="#3B82F6"/>
  
  <!-- Chart Area -->
  <rect x="180" y="240" width="400" height="140" rx="8" fill="white" stroke="#E2E8F0" stroke-width="1"/>
  <rect x="200" y="260" width="150" height="10" rx="2" fill="#334155"/>
  
  <!-- Chart -->
  <rect x="200" y="290" width="360" height="70" rx="4" fill="#F8FAFC"/>
  <polyline points="200,340 230,320 260,330 290,310 320,290 350,300 380,320 410,310 440,330 470,320 500,330 530,310 560,320" stroke="#3B82F6" stroke-width="2" fill="none"/>
  <circle cx="230" cy="320" r="4" fill="#3B82F6"/>
  <circle cx="290" cy="310" r="4" fill="#3B82F6"/>
  <circle cx="350" cy="300" r="4" fill="#3B82F6"/>
  <circle cx="410" cy="310" r="4" fill="#3B82F6"/>
  <circle cx="470" cy="320" r="4" fill="#3B82F6"/>
  <circle cx="530" cy="310" r="4" fill="#3B82F6"/>
  
  <!-- Email List Preview -->
  <rect x="180" y="400" width="400" height="0" rx="8" fill="white" stroke="#E2E8F0" stroke-width="1"/>
</svg> 