<svg width="600" height="400" viewBox="0 0 600 400" xmlns="http://www.w3.org/2000/svg">
  <rect width="600" height="400" fill="#f0f4ff" />
  <rect x="150" y="80" width="100" height="160" rx="5" fill="#ffffff" stroke="#3b82f6" stroke-width="2" />
  <rect x="250" y="80" width="100" height="160" rx="5" fill="#ffffff" stroke="#3b82f6" stroke-width="2" />
  <rect x="350" y="80" width="100" height="160" rx="5" fill="#ffffff" stroke="#3b82f6" stroke-width="2" />
  <rect x="170" y="100" width="60" height="40" rx="3" fill="#3b82f6" opacity="0.3" />
  <rect x="170" y="150" width="60" height="10" rx="3" fill="#3b82f6" opacity="0.5" />
  <rect x="170" y="170" width="60" height="10" rx="3" fill="#3b82f6" opacity="0.5" />
  <rect x="170" y="190" width="60" height="10" rx="3" fill="#3b82f6" opacity="0.5" />
  <rect x="270" y="100" width="60" height="40" rx="3" fill="#3b82f6" opacity="0.4" />
  <rect x="270" y="150" width="60" height="10" rx="3" fill="#3b82f6" opacity="0.6" />
  <rect x="270" y="170" width="60" height="10" rx="3" fill="#3b82f6" opacity="0.6" />
  <rect x="270" y="190" width="60" height="10" rx="3" fill="#3b82f6" opacity="0.6" />
  <rect x="370" y="100" width="60" height="40" rx="3" fill="#3b82f6" opacity="0.5" />
  <rect x="370" y="150" width="60" height="10" rx="3" fill="#3b82f6" opacity="0.7" />
  <rect x="370" y="170" width="60" height="10" rx="3" fill="#3b82f6" opacity="0.7" />
  <rect x="370" y="190" width="60" height="10" rx="3" fill="#3b82f6" opacity="0.7" />
  <rect x="200" y="260" width="200" height="40" rx="5" fill="#1e40af" opacity="0.8" />
  <text x="300" y="285" font-family="Arial" font-size="14" text-anchor="middle" fill="#ffffff">Choose a Template</text>
  <text x="300" y="340" font-family="Arial" font-size="16" text-anchor="middle" fill="#4b5563">Beautiful Email Templates</text>
</svg> 