<svg width="600" height="400" viewBox="0 0 600 400" fill="none" xmlns="http://www.w3.org/2000/svg"><rect width="600" height="400" fill="#F0F9FF"/><g transform="translate(100, 50)"><rect x="0" y="0" width="400" height="300" rx="8" fill="white" stroke="#E5E7EB" stroke-width="2"/><rect x="20" y="20" width="360" height="40" rx="4" fill="#EFF6FF"/><rect x="40" y="35" width="120" height="10" rx="2" fill="#3B82F6"/><rect x="320" y="35" width="40" height="10" rx="2" fill="#3B82F6" opacity="0.5"/><rect x="20" y="80" width="170" height="100" rx="4" fill="#DBEAFE"/><rect x="30" y="90" width="150" height="15" rx="2" fill="#93C5FD" opacity="0.7"/><rect x="40" y="120" width="15" height="50" rx="2" fill="#3B82F6"/><rect x="70" y="130" width="15" height="40" rx="2" fill="#3B82F6"/><rect x="100" y="110" width="15" height="60" rx="2" fill="#3B82F6"/><rect x="130" y="140" width="15" height="30" rx="2" fill="#3B82F6"/><line x1="30" y1="170" x2="150" y2="170" stroke="#94A3B8" stroke-width="1"/><rect x="210" y="80" width="170" height="100" rx="4" fill="#DBEAFE"/><rect x="220" y="90" width="150" height="15" rx="2" fill="#93C5FD" opacity="0.7"/><polyline points="230,150 250,130 270,140 290,120 310,110 330,130 350,115" stroke="#3B82F6" stroke-width="2" fill="none"/><circle cx="230" cy="150" r="3" fill="#3B82F6"/><circle cx="250" cy="130" r="3" fill="#3B82F6"/><circle cx="270" cy="140" r="3" fill="#3B82F6"/><circle cx="290" cy="120" r="3" fill="#3B82F6"/><circle cx="310" cy="110" r="3" fill="#3B82F6"/><circle cx="330" cy="130" r="3" fill="#3B82F6"/><circle cx="350" cy="115" r="3" fill="#3B82F6"/><line x1="220" y1="170" x2="350" y2="170" stroke="#94A3B8" stroke-width="1"/><rect x="20" y="200" width="360" height="80" rx="4" fill="#EFF6FF"/><rect x="40" y="220" width="80" height="40" rx="4" fill="white"/><rect x="50" y="230" width="40" height="8" rx="2" fill="#3B82F6"/><rect x="50" y="245" width="60" height="8" rx="2" fill="#93C5FD"/><rect x="140" y="220" width="80" height="40" rx="4" fill="white"/><rect x="150" y="230" width="40" height="8" rx="2" fill="#3B82F6"/><rect x="150" y="245" width="60" height="8" rx="2" fill="#93C5FD"/><rect x="240" y="220" width="80" height="40" rx="4" fill="white"/><rect x="250" y="230" width="40" height="8" rx="2" fill="#3B82F6"/><rect x="250" y="245" width="60" height="8" rx="2" fill="#93C5FD"/></g></svg>
