<svg width="600" height="400" viewBox="0 0 600 400" fill="none" xmlns="http://www.w3.org/2000/svg">
  <rect width="600" height="400" fill="#F0F9FF"/>
  <g transform="translate(100, 50)">
    <!-- Automation Flow -->
    <rect x="0" y="0" width="400" height="300" rx="8" fill="white" stroke="#E5E7EB" stroke-width="2"/>
    
    <!-- Flow Header -->
    <rect x="20" y="20" width="360" height="30" rx="4" fill="#EFF6FF"/>
    <rect x="40" y="30" width="120" height="10" rx="2" fill="#3B82F6"/>
    <rect x="320" y="30" width="40" height="10" rx="2" fill="#3B82F6" opacity="0.5"/>
    
    <!-- Flow Steps -->
    <!-- Step 1 -->
    <circle cx="60" cy="90" r="25" fill="#DBEAFE"/>
    <circle cx="60" cy="90" r="15" fill="#3B82F6"/>
    <rect x="100" y="80" width="100" height="20" rx="2" fill="#93C5FD" opacity="0.7"/>
    
    <!-- Connection Line 1-2 -->
    <path d="M85 90 L135 90 L135 150 L85 150" stroke="#3B82F6" stroke-width="2" stroke-dasharray="4 2"/>
    
    <!-- Step 2 -->
    <circle cx="60" cy="150" r="25" fill="#DBEAFE"/>
    <circle cx="60" cy="150" r="15" fill="#3B82F6"/>
    <rect x="100" y="140" width="120" height="20" rx="2" fill="#93C5FD" opacity="0.7"/>
    
    <!-- Connection Line 2-3 -->
    <path d="M85 150 L135 150 L135 210 L85 210" stroke="#3B82F6" stroke-width="2" stroke-dasharray="4 2"/>
    
    <!-- Step 3 -->
    <circle cx="60" cy="210" r="25" fill="#DBEAFE"/>
    <circle cx="60" cy="210" r="15" fill="#3B82F6"/>
    <rect x="100" y="200" width="80" height="20" rx="2" fill="#93C5FD" opacity="0.7"/>
    
    <!-- Automation Elements -->
    <g transform="translate(250, 90)">
      <rect x="0" y="0" width="120" height="120" rx="8" fill="#EFF6FF"/>
      <circle cx="60" cy="30" r="15" fill="#BFDBFE"/>
      <rect x="30" y="60" width="60" height="10" rx="2" fill="#3B82F6"/>
      <rect x="20" y="80" width="80" height="10" rx="2" fill="#3B82F6" opacity="0.7"/>
      <rect x="40" y="100" width="40" height="10" rx="2" fill="#3B82F6" opacity="0.5"/>
    </g>
    
    <!-- Time Indicators -->
    <g transform="translate(20, 250)">
      <rect x="0" y="0" width="360" height="30" rx="4" fill="#DBEAFE"/>
      <circle cx="30" cy="15" r="8" fill="#3B82F6"/>
      <rect x="50" y="10" width="60" height="10" rx="2" fill="#3B82F6"/>
      <circle cx="150" cy="15" r="8" fill="#3B82F6"/>
      <rect x="170" y="10" width="60" height="10" rx="2" fill="#3B82F6"/>
      <circle cx="270" cy="15" r="8" fill="#3B82F6"/>
      <rect x="290" y="10" width="60" height="10" rx="2" fill="#3B82F6"/>
    </g>
  </g>
</svg> 