<svg width="600" height="400" viewBox="0 0 600 400" xmlns="http://www.w3.org/2000/svg">
  <rect width="600" height="400" fill="#f0f4ff" />
  <rect x="150" y="100" width="300" height="200" rx="5" fill="#ffffff" stroke="#3b82f6" stroke-width="2" />
  <line x1="150" y1="250" x2="450" y2="250" stroke="#e5e7eb" stroke-width="1" />
  <line x1="150" y1="200" x2="450" y2="200" stroke="#e5e7eb" stroke-width="1" />
  <line x1="150" y1="150" x2="450" y2="150" stroke="#e5e7eb" stroke-width="1" />
  <rect x="170" y="220" width="30" height="30" fill="#3b82f6" opacity="0.7" />
  <rect x="220" y="180" width="30" height="70" fill="#3b82f6" opacity="0.7" />
  <rect x="270" y="150" width="30" height="100" fill="#3b82f6" opacity="0.7" />
  <rect x="320" y="200" width="30" height="50" fill="#3b82f6" opacity="0.7" />
  <rect x="370" y="170" width="30" height="80" fill="#3b82f6" opacity="0.7" />
  <path d="M185,210 L235,170 L285,140 L335,190 L385,160" fill="none" stroke="#1e40af" stroke-width="3" />
  <circle cx="185" cy="210" r="4" fill="#1e40af" />
  <circle cx="235" cy="170" r="4" fill="#1e40af" />
  <circle cx="285" cy="140" r="4" fill="#1e40af" />
  <circle cx="335" cy="190" r="4" fill="#1e40af" />
  <circle cx="385" cy="160" r="4" fill="#1e40af" />
  <text x="300" y="340" font-family="Arial" font-size="16" text-anchor="middle" fill="#4b5563">Advanced Analytics</text>
</svg> 